####
#
# OBJ File Generated by Meshlab
#
####
# Object t_shape.obj
#
# Vertices: 16
# Faces: 24
#
####
mtllib ./t_shape.mtl

vn -0.5773836 0.5772836 -0.5773836
v -0.0178570 0.0250000 -0.0200000
vn -0.5773836 0.5773836 0.5772836
v -0.0178570 0.0250000 0.0200000
vn 0.5773836 0.5773836 -0.5772836
v 0.1321430 0.0250000 -0.0200000
vn 0.5773836 0.5772836 0.5773836
v 0.1321430 0.0250000 0.0200000
vn -0.5773836 -0.5773836 -0.5772836
v -0.0178570 -0.0250000 -0.0200000
vn -0.5773836 -0.5772836 0.5773836
v -0.0178570 -0.0250000 0.0200000
vn 0.5773836 -0.5772836 -0.5773836
v 0.1321430 -0.0250000 -0.0200000
vn 0.5773836 -0.5773836 0.5772836
v 0.1321430 -0.0250000 0.0200000
vn -0.5773169 0.5774170 -0.5773169
v -0.0678570 0.1000000 -0.0200000
vn -0.5773169 0.5774170 0.5773169
v -0.0678570 0.1000000 0.0200000
vn 0.5773169 0.5774170 -0.5773169
v -0.0178570 0.1000000 -0.0200000
vn 0.5773169 0.5774170 0.5773169
v -0.0178570 0.1000000 0.0200000
vn -0.5773169 -0.5774170 -0.5773169
v -0.0678570 -0.1000000 -0.0200000
vn -0.5773169 -0.5774170 0.5773169
v -0.0678570 -0.1000000 0.0200000
vn 0.5773169 -0.5774170 -0.5773169
v -0.0178570 -0.1000000 -0.0200000
vn 0.5773169 -0.5774170 0.5773169
v -0.0178570 -0.1000000 0.0200000
# 16 vertices, 0 vertices normals


usemtl material_0
vt 0.8124390 0.9942300
vt 0.8124400 0.5057700
vt 0.9426960 0.9942300
f 2/1/2 4/2/4 1/3/1
vt 0.3103850 0.8314100
vt 0.1801290 0.6685900
vt 0.3103850 0.6685900
f 5/4/5 2/5/2 1/6/1
vt 0.9426960 0.5057700
f 1/3/1 4/2/4 3/7/3
vt 0.8009000 0.4942300
vt 0.6380800 0.0057700
vt 0.8009000 0.0057700
f 3/8/3 5/9/5 1/10/1
vt 0.9752600 0.4942300
vt 0.8124390 0.0057700
vt 0.9752600 0.0057700
f 2/11/2 8/12/8 4/13/4
vt 0.1801290 0.8314100
f 6/14/6 2/5/2 5/4/5
vt 0.8124390 0.4942300
f 6/15/6 8/12/8 2/11/2
vt 0.0383340 0.8314100
vt 0.0383340 0.6685900
vt 0.1685900 0.8314100
f 4/16/4 8/17/8 3/18/3
vt 0.6380800 0.4942300
f 7/19/7 5/9/5 3/8/3
vt 0.1685900 0.6685900
f 3/18/3 8/17/8 7/20/7
vt 0.8009000 0.9942300
vt 0.6706440 0.5057700
vt 0.8009000 0.5057700
f 7/21/7 6/22/6 5/23/5
vt 0.6706440 0.9942300
f 8/24/8 6/22/6 7/21/7
vt 0.4962840 0.8314100
vt 0.4962840 0.6685900
vt 0.6265400 0.8314100
f 10/25/10 12/26/12 9/27/9
vt 0.4847450 0.6570510
vt 0.3544890 0.0057700
vt 0.4847450 0.0057700
f 13/28/13 10/29/10 9/30/9
vt 0.6265400 0.6685900
f 9/27/9 12/26/12 11/31/11
vt 0.0057700 0.6570500
vt 0.1685900 0.0057700
vt 0.1685900 0.6570500
f 11/32/11 13/33/13 9/34/9
vt 0.1801290 0.6570500
vt 0.3429490 0.0057700
vt 0.3429490 0.6570500
f 10/35/10 16/36/16 12/37/12
vt 0.3544890 0.6570500
f 14/38/14 10/29/10 13/28/13
vt 0.1801290 0.0057700
f 14/39/14 16/36/16 10/35/10
vt 0.4962840 0.6570500
vt 0.4962840 0.0057700
vt 0.6265400 0.6570500
f 12/40/12 16/41/16 11/42/11
vt 0.0057700 0.0057700
f 15/43/15 13/33/13 11/32/11
vt 0.6265410 0.0057700
f 11/42/11 16/41/16 15/44/15
vt 0.4847450 0.8314100
vt 0.3544890 0.6685900
vt 0.4847450 0.6685900
f 15/45/15 14/46/14 13/47/13
vt 0.3544890 0.8314100
f 16/48/16 14/46/14 15/45/15
# 24 faces, 48 coords texture

# End of File
